<svg xmlns="http://www.w3.org/2000/svg" width="563" height="510" viewBox="0 0 563 510" version="1.1">
	<path d="M 109.791 100.738 C 109.602 101.157, 109.610 143.912, 109.807 195.750 L 110.167 290 138.833 290 L 167.500 290 167.272 256.250 L 167.044 222.500 173.490 247 C 177.036 260.475, 180.987 275.550, 182.272 280.500 L 184.606 289.500 207.063 289.768 L 229.520 290.036 238.030 255.905 L 246.540 221.773 246.155 255.886 L 245.770 290 262.666 290 L 279.563 290 292.191 262.750 C 299.137 247.762, 306.870 231.113, 309.377 225.750 L 313.934 216 290.477 216 L 267.019 216 274.259 204.184 C 278.242 197.685, 293.400 172.947, 307.943 149.210 C 322.487 125.474, 334.508 106.175, 334.657 106.324 C 334.903 106.569, 328.102 126.311, 311.919 172.331 C 308.663 181.589, 306 189.351, 306 189.581 C 306 189.812, 317.454 190, 331.453 190 L 356.905 190 337.953 215 C 327.529 228.750, 310.471 251.250, 300.047 265 L 281.095 290 372.547 290 L 464 290 464 264 L 464 238 418 238 L 372 238 372 230 L 372 222 393.412 222 L 414.823 222 431.412 196.561 C 440.535 182.570, 448 170.870, 448 170.561 C 448 170.253, 430.877 170, 409.949 170 L 371.899 170 372.081 161 L 372.263 152 417.131 152 L 462 152 462 126 L 462 100 346.500 100 C 282.975 100, 230.986 100.112, 230.970 100.250 C 230.753 102.050, 207.238 194.095, 206.912 194.422 C 206.663 194.670, 201.997 177.240, 196.542 155.687 C 191.087 134.134, 185.651 112.900, 184.460 108.500 L 182.296 100.500 146.215 100.238 C 126.370 100.093, 109.979 100.318, 109.791 100.738 M 394.248 333.834 C 383.521 337.633, 381.059 342.484, 380.285 361.342 C 379.958 369.303, 380.208 377.462, 380.918 382 C 383.657 399.506, 391.319 402.695, 428.449 401.781 C 452.496 401.189, 456.393 399.852, 461.321 390.500 C 463.151 387.026, 463.479 384.381, 463.814 370.390 C 464.393 346.207, 462.422 339.925, 452.624 334.722 C 448.753 332.666, 446.995 332.515, 424 332.253 C 402.213 332.005, 398.918 332.180, 394.248 333.834 M 109.376 334.461 C 109.068 335.265, 108.970 350.453, 109.158 368.211 L 109.500 400.500 118.750 400.788 L 128 401.075 128.054 377.288 L 128.107 353.500 140.058 377.250 L 152.008 401 159 401 L 165.992 401 177.942 377.250 L 189.893 353.500 189.946 377.250 L 190 401 199.500 401 L 209 401 209 367 L 209 333 194.202 333 L 179.403 333 169.235 354.195 L 159.067 375.390 148.859 354.195 L 138.650 333 124.294 333 C 112.623 333, 109.832 333.273, 109.376 334.461 M 220 357.341 C 220 388.967, 221.438 394.082, 231.757 399.164 C 236.271 401.387, 237.514 401.500, 257.500 401.500 C 280.654 401.500, 285.085 400.653, 290.277 395.232 C 295.950 389.309, 296.410 386.741, 296.808 358.750 L 297.174 333 287.087 333 L 277 333 277 355.365 C 277 384.769, 278.177 383, 258.619 383 C 248.649 383, 243.859 382.617, 242.636 381.723 C 239.799 379.648, 239.049 373.637, 239.024 352.750 L 239 333 229.500 333 L 220 333 220 357.341 M 304 341.500 L 304 350 316.483 350 L 328.966 350 329.233 375.250 L 329.500 400.500 339.250 400.786 L 349 401.072 349 375.536 L 349 350 362 350 L 375 350 375 341.500 L 375 333 339.500 333 L 304 333 304 341.500 M 405.400 351.428 C 401.780 353.004, 401.143 354.341, 400.337 362.049 C 399.498 370.078, 400.748 378.748, 403.082 381.082 C 404.825 382.825, 406.581 383, 422.345 383 C 443.801 383, 443.323 383.295, 443.856 369.722 C 444.322 357.845, 442.987 353.310, 438.469 351.422 C 433.882 349.506, 409.806 349.510, 405.400 351.428 M 110 428 L 110 437 117.500 437 C 123.500 437, 125 436.700, 125 435.500 C 125 434.321, 123.611 434, 118.500 434 C 112.233 434, 112 433.910, 112 431.500 C 112 429.111, 112.267 429, 118 429 C 122.667 429, 124 428.667, 124 427.500 C 124 426.333, 122.667 426, 118 426 C 112.667 426, 112 425.778, 112 424 C 112 422.205, 112.667 422, 118.500 422 C 123.611 422, 125 421.679, 125 420.500 C 125 419.300, 123.500 419, 117.500 419 L 110 419 110 428 M 157 428.044 L 157 437.088 164.170 436.794 C 168.795 436.604, 171.487 436.056, 171.753 435.250 C 172.054 434.342, 170.504 434, 166.083 434 L 160 434 160 426.500 C 160 420.500, 159.700 419, 158.500 419 C 157.277 419, 157 420.672, 157 428.044 M 203 428 L 203 437 210.500 437 C 216.500 437, 218 436.700, 218 435.500 C 218 434.333, 216.667 434, 212 434 C 206.267 434, 206 433.889, 206 431.500 C 206 429.111, 206.267 429, 212 429 C 216.667 429, 218 428.667, 218 427.500 C 218 426.333, 216.667 426, 212 426 C 206.667 426, 206 425.778, 206 424 C 206 422.222, 206.667 422, 212 422 C 216.667 422, 218 421.667, 218 420.500 C 218 419.300, 216.500 419, 210.500 419 L 203 419 203 428 M 252.750 420.080 C 251.350 420.895, 251 422.484, 251 428.015 C 251 436.129, 251.872 437, 260 437 C 262.822 437, 266.002 436.534, 267.066 435.965 C 269.389 434.722, 269.733 430, 267.500 430 C 266.667 430, 266 430.889, 266 432 C 266 433.774, 265.333 434, 260.107 434 C 253.736 434, 253 433.379, 253 428 C 253 422.640, 253.746 422, 259.990 422 C 264.926 422, 265.843 422.291, 266.290 424 C 266.959 426.557, 269 426.611, 269 424.071 C 269 420.560, 266.266 418.998, 260.179 419.030 C 257.055 419.047, 253.713 419.519, 252.750 420.080 M 300 420.500 C 300 421.583, 301.111 422, 304 422 L 308 422 308 429.500 C 308 433.833, 308.422 437, 309 437 C 309.578 437, 310 433.833, 310 429.500 L 310 422 314 422 C 316.889 422, 318 421.583, 318 420.500 C 318 419.278, 316.333 419, 309 419 C 301.667 419, 300 419.278, 300 420.500 M 349.422 420.344 C 348.393 423.024, 349.470 436.330, 350.750 436.753 C 351.596 437.033, 352 435.994, 352 433.533 L 352 429.900 357.750 430.200 C 363.435 430.497, 363.504 430.537, 363.813 433.750 C 363.998 435.667, 364.684 437, 365.484 437 C 366.515 437, 366.842 435.071, 366.842 428.993 C 366.842 419.451, 366.377 419, 356.534 419 C 351.934 419, 349.781 419.407, 349.422 420.344 M 400 428 C 400 435.333, 400.278 437, 401.500 437 C 402.722 437, 403 435.333, 403 428 C 403 420.667, 402.722 419, 401.500 419 C 400.278 419, 400 420.667, 400 428 M 437.571 420.571 C 436.501 421.642, 436 424.009, 436 428 C 436 435.779, 437.282 437, 445.449 437 C 451.901 437, 453.502 436.192, 454.155 432.604 C 454.633 429.976, 452.382 429.431, 451.707 432.011 C 451.218 433.881, 450.536 434.072, 445.330 433.802 L 439.500 433.500 439.200 427.750 L 438.900 422 444.883 422 C 449.987 422, 450.958 422.294, 451.500 424 C 452.388 426.798, 454 426.498, 454 423.535 C 454 422.122, 453.175 420.629, 452.066 420.035 C 448.995 418.392, 439.396 418.747, 437.571 420.571 M 352 424.500 C 352 426.889, 352.267 427, 358 427 C 363.733 427, 364 426.889, 364 424.500 C 364 422.111, 363.733 422, 358 422 C 352.267 422, 352 422.111, 352 424.500" stroke="none" fill="#ffffff" fill-rule="evenodd"/>
</svg>