<svg xmlns="http://www.w3.org/2000/svg" width="429" height="258" viewBox="0 0 429 258" version="1.1">
	<path d="M 37.791 41.738 C 37.602 42.157, 37.610 84.912, 37.807 136.750 L 38.167 231 66.833 231 L 95.500 231 95.272 197.250 L 95.044 163.500 101.490 188 C 105.036 201.475, 108.987 216.550, 110.272 221.500 L 112.606 230.500 135.063 230.768 L 157.520 231.036 166.030 196.905 L 174.540 162.773 174.155 196.886 L 173.770 231 190.666 231 L 207.563 231 220.191 203.750 C 227.137 188.762, 234.870 172.113, 237.377 166.750 L 241.934 157 218.477 157 L 195.019 157 202.259 145.184 C 206.242 138.685, 221.400 113.947, 235.943 90.210 C 250.487 66.474, 262.508 47.175, 262.657 47.324 C 262.903 47.569, 256.102 67.311, 239.919 113.331 C 236.663 122.589, 234 130.351, 234 130.581 C 234 130.812, 245.454 131, 259.453 131 L 284.905 131 265.953 156 C 255.529 169.750, 238.471 192.250, 228.047 206 L 209.095 231 300.547 231 L 392 231 392 205 L 392 179 346 179 L 300 179 300 171 L 300 163 321.412 163 L 342.823 163 359.412 137.561 C 368.535 123.570, 376 111.870, 376 111.561 C 376 111.253, 358.877 111, 337.949 111 L 299.899 111 300.081 102 L 300.263 93 345.131 93 L 390 93 390 67 L 390 41 274.500 41 C 210.975 41, 158.986 41.112, 158.970 41.250 C 158.753 43.050, 135.238 135.095, 134.912 135.422 C 134.663 135.670, 129.997 118.240, 124.542 96.687 C 119.087 75.134, 113.651 53.900, 112.460 49.500 L 110.296 41.500 74.215 41.238 C 54.370 41.093, 37.979 41.318, 37.791 41.738" stroke="none" fill="#ffffff" fill-rule="evenodd"/>
</svg>